<mxfile host="app.diagrams.net" agent="Mozilla/5.0 (Windows NT 10.0; Win64; x64) AppleWebKit/537.36 (KHTML, like Gecko) Chrome/129.0.0.0 Safari/537.36" version="24.7.17">
  <diagram name="Page-1" id="r4v8Bf2oA0OwIdk7E9MM">
    <mxGraphModel dx="1235" dy="1714" grid="1" gridSize="10" guides="1" tooltips="1" connect="1" arrows="1" fold="1" page="1" pageScale="1" pageWidth="850" pageHeight="1100" math="0" shadow="0">
      <root>
        <mxCell id="0" />
        <mxCell id="1" parent="0" />
        <mxCell id="OdBmhMoSasrQ1T2dxbwQ-6" value="" style="rounded=0;whiteSpace=wrap;html=1;" vertex="1" parent="1">
          <mxGeometry x="260" y="-470" width="860" height="1419" as="geometry" />
        </mxCell>
        <mxCell id="dL5LyZE0v43U3lSl0g-K-1" value="UC8: (Fysiek) Product Reserveren" style="ellipse;whiteSpace=wrap;html=1;" parent="1" vertex="1">
          <mxGeometry x="880" y="-70" width="140" height="70" as="geometry" />
        </mxCell>
        <mxCell id="dL5LyZE0v43U3lSl0g-K-2" value="Lid" style="shape=umlActor;verticalLabelPosition=bottom;verticalAlign=top;html=1;" parent="1" vertex="1">
          <mxGeometry x="160" y="180" width="30" height="60" as="geometry" />
        </mxCell>
        <mxCell id="dL5LyZE0v43U3lSl0g-K-5" value="UC9: Digitaal Product Toevoegen Aan Account " style="ellipse;whiteSpace=wrap;html=1;" parent="1" vertex="1">
          <mxGeometry x="880" y="50" width="140" height="70" as="geometry" />
        </mxCell>
        <mxCell id="dL5LyZE0v43U3lSl0g-K-6" value="UC7:(Fysiek) Product Verlengen" style="ellipse;whiteSpace=wrap;html=1;" parent="1" vertex="1">
          <mxGeometry x="880" y="-190" width="140" height="70" as="geometry" />
        </mxCell>
        <mxCell id="dL5LyZE0v43U3lSl0g-K-11" value="UC16: Fysiek Product Terugbrengen (lid)" style="ellipse;whiteSpace=wrap;html=1;" parent="1" vertex="1">
          <mxGeometry x="400" y="530" width="140" height="70" as="geometry" />
        </mxCell>
        <mxCell id="dL5LyZE0v43U3lSl0g-K-12" value="UC10: Schuld (Gedeeltelijk) Betalen" style="ellipse;whiteSpace=wrap;html=1;" parent="1" vertex="1">
          <mxGeometry x="400" y="50" width="140" height="70" as="geometry" />
        </mxCell>
        <mxCell id="dL5LyZE0v43U3lSl0g-K-17" value="" style="endArrow=none;html=1;rounded=0;" parent="1" source="dL5LyZE0v43U3lSl0g-K-2" target="dL5LyZE0v43U3lSl0g-K-12" edge="1">
          <mxGeometry width="50" height="50" relative="1" as="geometry">
            <mxPoint x="200" y="220" as="sourcePoint" />
            <mxPoint x="410" y="216" as="targetPoint" />
          </mxGeometry>
        </mxCell>
        <mxCell id="dL5LyZE0v43U3lSl0g-K-18" value="UC3: Catalogus Inzien" style="ellipse;whiteSpace=wrap;html=1;" parent="1" vertex="1">
          <mxGeometry x="400" y="-70" width="140" height="70" as="geometry" />
        </mxCell>
        <mxCell id="dL5LyZE0v43U3lSl0g-K-19" value="UC5: Product Inzien" style="ellipse;whiteSpace=wrap;html=1;" parent="1" vertex="1">
          <mxGeometry x="640" y="-70" width="140" height="70" as="geometry" />
        </mxCell>
        <mxCell id="dL5LyZE0v43U3lSl0g-K-20" value="UC14: Leenhistorie Inzien" style="ellipse;whiteSpace=wrap;html=1;" parent="1" vertex="1">
          <mxGeometry x="400" y="280" width="140" height="70" as="geometry" />
        </mxCell>
        <mxCell id="dL5LyZE0v43U3lSl0g-K-21" value="UC 12: Notificaties Instellingen Beheren" style="ellipse;whiteSpace=wrap;html=1;" parent="1" vertex="1">
          <mxGeometry x="640" y="170" width="140" height="70" as="geometry" />
        </mxCell>
        <mxCell id="dL5LyZE0v43U3lSl0g-K-22" value="" style="endArrow=none;html=1;rounded=0;" parent="1" source="dL5LyZE0v43U3lSl0g-K-2" target="dL5LyZE0v43U3lSl0g-K-18" edge="1">
          <mxGeometry width="50" height="50" relative="1" as="geometry">
            <mxPoint x="200" y="214" as="sourcePoint" />
            <mxPoint x="427" y="118" as="targetPoint" />
          </mxGeometry>
        </mxCell>
        <mxCell id="dL5LyZE0v43U3lSl0g-K-23" value="&amp;lt;&amp;lt;extend&amp;gt;&amp;gt;" style="html=1;verticalAlign=bottom;labelBackgroundColor=none;endArrow=open;endFill=0;dashed=1;rounded=0;" parent="1" source="dL5LyZE0v43U3lSl0g-K-18" target="dL5LyZE0v43U3lSl0g-K-19" edge="1">
          <mxGeometry width="160" relative="1" as="geometry">
            <mxPoint x="440" y="50" as="sourcePoint" />
            <mxPoint x="600" y="50" as="targetPoint" />
            <mxPoint as="offset" />
          </mxGeometry>
        </mxCell>
        <mxCell id="dL5LyZE0v43U3lSl0g-K-24" value="UC6: Catalogus Filteren" style="ellipse;whiteSpace=wrap;html=1;" parent="1" vertex="1">
          <mxGeometry x="640" y="-310" width="140" height="70" as="geometry" />
        </mxCell>
        <mxCell id="dL5LyZE0v43U3lSl0g-K-25" value="UC4: Catalogus Zoeken" style="ellipse;whiteSpace=wrap;html=1;" parent="1" vertex="1">
          <mxGeometry x="640" y="-190" width="140" height="70" as="geometry" />
        </mxCell>
        <mxCell id="dL5LyZE0v43U3lSl0g-K-26" value="&amp;lt;&amp;lt;extend&amp;gt;&amp;gt;" style="html=1;verticalAlign=bottom;labelBackgroundColor=none;endArrow=open;endFill=0;dashed=1;rounded=0;" parent="1" source="dL5LyZE0v43U3lSl0g-K-18" target="dL5LyZE0v43U3lSl0g-K-25" edge="1">
          <mxGeometry width="160" relative="1" as="geometry">
            <mxPoint x="550" y="-25" as="sourcePoint" />
            <mxPoint x="690" y="-25" as="targetPoint" />
          </mxGeometry>
        </mxCell>
        <mxCell id="dL5LyZE0v43U3lSl0g-K-27" value="&amp;lt;&amp;lt;extend&amp;gt;&amp;gt;" style="html=1;verticalAlign=bottom;labelBackgroundColor=none;endArrow=open;endFill=0;dashed=1;rounded=0;exitX=0.5;exitY=0;exitDx=0;exitDy=0;" parent="1" source="dL5LyZE0v43U3lSl0g-K-25" target="dL5LyZE0v43U3lSl0g-K-24" edge="1">
          <mxGeometry x="0.2" y="-40" width="160" relative="1" as="geometry">
            <mxPoint x="560" y="-15" as="sourcePoint" />
            <mxPoint x="700" y="-15" as="targetPoint" />
            <mxPoint y="1" as="offset" />
          </mxGeometry>
        </mxCell>
        <mxCell id="dL5LyZE0v43U3lSl0g-K-28" value="" style="endArrow=none;html=1;rounded=0;" parent="1" source="dL5LyZE0v43U3lSl0g-K-2" target="dL5LyZE0v43U3lSl0g-K-34" edge="1">
          <mxGeometry width="50" height="50" relative="1" as="geometry">
            <mxPoint x="150" y="113" as="sourcePoint" />
            <mxPoint x="394" y="-90" as="targetPoint" />
          </mxGeometry>
        </mxCell>
        <mxCell id="dL5LyZE0v43U3lSl0g-K-30" value="&amp;lt;&amp;lt;extend&amp;gt;&amp;gt;" style="html=1;verticalAlign=bottom;labelBackgroundColor=none;endArrow=open;endFill=0;dashed=1;rounded=0;" parent="1" source="dL5LyZE0v43U3lSl0g-K-19" target="dL5LyZE0v43U3lSl0g-K-5" edge="1">
          <mxGeometry x="0.0118" width="160" relative="1" as="geometry">
            <mxPoint x="752" y="6" as="sourcePoint" />
            <mxPoint x="928" y="174" as="targetPoint" />
            <mxPoint as="offset" />
          </mxGeometry>
        </mxCell>
        <mxCell id="dL5LyZE0v43U3lSl0g-K-31" value="&amp;lt;&amp;lt;extend&amp;gt;&amp;gt;" style="html=1;verticalAlign=bottom;labelBackgroundColor=none;endArrow=open;endFill=0;dashed=1;rounded=0;" parent="1" source="dL5LyZE0v43U3lSl0g-K-19" target="dL5LyZE0v43U3lSl0g-K-1" edge="1">
          <mxGeometry x="0.0118" width="160" relative="1" as="geometry">
            <mxPoint x="770" as="sourcePoint" />
            <mxPoint x="911" y="70" as="targetPoint" />
            <mxPoint as="offset" />
          </mxGeometry>
        </mxCell>
        <mxCell id="dL5LyZE0v43U3lSl0g-K-32" value="&amp;lt;&amp;lt;extend&amp;gt;&amp;gt;" style="html=1;verticalAlign=bottom;labelBackgroundColor=none;endArrow=open;endFill=0;dashed=1;rounded=0;" parent="1" source="dL5LyZE0v43U3lSl0g-K-19" target="dL5LyZE0v43U3lSl0g-K-6" edge="1">
          <mxGeometry x="0.0118" width="160" relative="1" as="geometry">
            <mxPoint x="790" y="-25" as="sourcePoint" />
            <mxPoint x="890" y="-25" as="targetPoint" />
            <mxPoint as="offset" />
          </mxGeometry>
        </mxCell>
        <mxCell id="dL5LyZE0v43U3lSl0g-K-33" value="UC 1: Mijn Bibliotheek Inzien" style="ellipse;whiteSpace=wrap;html=1;" parent="1" vertex="1">
          <mxGeometry x="400" y="-190" width="140" height="70" as="geometry" />
        </mxCell>
        <mxCell id="dL5LyZE0v43U3lSl0g-K-34" value="UC11: Notificatie Overzicht Inzien" style="ellipse;whiteSpace=wrap;html=1;" parent="1" vertex="1">
          <mxGeometry x="400" y="170" width="140" height="70" as="geometry" />
        </mxCell>
        <mxCell id="dL5LyZE0v43U3lSl0g-K-35" value="" style="endArrow=none;html=1;rounded=0;" parent="1" source="dL5LyZE0v43U3lSl0g-K-2" target="dL5LyZE0v43U3lSl0g-K-33" edge="1">
          <mxGeometry width="50" height="50" relative="1" as="geometry">
            <mxPoint x="200" y="208" as="sourcePoint" />
            <mxPoint x="444" y="5" as="targetPoint" />
          </mxGeometry>
        </mxCell>
        <mxCell id="dL5LyZE0v43U3lSl0g-K-36" value="" style="endArrow=none;html=1;rounded=0;" parent="1" source="dL5LyZE0v43U3lSl0g-K-2" target="dL5LyZE0v43U3lSl0g-K-20" edge="1">
          <mxGeometry width="50" height="50" relative="1" as="geometry">
            <mxPoint x="200" y="201" as="sourcePoint" />
            <mxPoint x="454" y="-113" as="targetPoint" />
          </mxGeometry>
        </mxCell>
        <mxCell id="dL5LyZE0v43U3lSl0g-K-38" value="" style="endArrow=none;html=1;rounded=0;" parent="1" source="dL5LyZE0v43U3lSl0g-K-2" target="dL5LyZE0v43U3lSl0g-K-11" edge="1">
          <mxGeometry width="50" height="50" relative="1" as="geometry">
            <mxPoint x="200" y="232" as="sourcePoint" />
            <mxPoint x="443" y="425" as="targetPoint" />
          </mxGeometry>
        </mxCell>
        <mxCell id="dL5LyZE0v43U3lSl0g-K-39" value="Fysieke Productbeheer Systeem" style="shape=umlActor;verticalLabelPosition=bottom;verticalAlign=top;html=1;" parent="1" vertex="1">
          <mxGeometry x="1250" y="535" width="30" height="60" as="geometry" />
        </mxCell>
        <mxCell id="dL5LyZE0v43U3lSl0g-K-42" value="" style="endArrow=none;html=1;rounded=0;" parent="1" source="dL5LyZE0v43U3lSl0g-K-39" target="dL5LyZE0v43U3lSl0g-K-11" edge="1">
          <mxGeometry width="50" height="50" relative="1" as="geometry">
            <mxPoint x="200" y="238" as="sourcePoint" />
            <mxPoint x="453" y="543" as="targetPoint" />
          </mxGeometry>
        </mxCell>
        <mxCell id="dL5LyZE0v43U3lSl0g-K-45" value="UC17: Fysiek Product Lenen (lid)" style="ellipse;whiteSpace=wrap;html=1;" parent="1" vertex="1">
          <mxGeometry x="390" y="650" width="140" height="70" as="geometry" />
        </mxCell>
        <mxCell id="dL5LyZE0v43U3lSl0g-K-46" value="UC18: Fysiek Product Verlengen (lid)" style="ellipse;whiteSpace=wrap;html=1;" parent="1" vertex="1">
          <mxGeometry x="350" y="780" width="140" height="70" as="geometry" />
        </mxCell>
        <mxCell id="dL5LyZE0v43U3lSl0g-K-47" value="" style="endArrow=none;html=1;rounded=0;" parent="1" source="dL5LyZE0v43U3lSl0g-K-39" target="dL5LyZE0v43U3lSl0g-K-45" edge="1">
          <mxGeometry width="50" height="50" relative="1" as="geometry">
            <mxPoint x="1260" y="575" as="sourcePoint" />
            <mxPoint x="550" y="575" as="targetPoint" />
          </mxGeometry>
        </mxCell>
        <mxCell id="dL5LyZE0v43U3lSl0g-K-48" value="" style="endArrow=none;html=1;rounded=0;" parent="1" source="dL5LyZE0v43U3lSl0g-K-39" target="dL5LyZE0v43U3lSl0g-K-46" edge="1">
          <mxGeometry width="50" height="50" relative="1" as="geometry">
            <mxPoint x="1260" y="577" as="sourcePoint" />
            <mxPoint x="547" y="685" as="targetPoint" />
          </mxGeometry>
        </mxCell>
        <mxCell id="dL5LyZE0v43U3lSl0g-K-50" value="&amp;lt;&amp;lt;extend&amp;gt;&amp;gt;" style="html=1;verticalAlign=bottom;labelBackgroundColor=none;endArrow=open;endFill=0;dashed=1;rounded=0;" parent="1" source="dL5LyZE0v43U3lSl0g-K-34" target="dL5LyZE0v43U3lSl0g-K-21" edge="1">
          <mxGeometry width="160" relative="1" as="geometry">
            <mxPoint x="620" y="360" as="sourcePoint" />
            <mxPoint x="720" y="360" as="targetPoint" />
            <mxPoint as="offset" />
          </mxGeometry>
        </mxCell>
        <mxCell id="dL5LyZE0v43U3lSl0g-K-51" value="UC13: Notificatie Inzien" style="ellipse;whiteSpace=wrap;html=1;" parent="1" vertex="1">
          <mxGeometry x="640" y="290" width="140" height="70" as="geometry" />
        </mxCell>
        <mxCell id="dL5LyZE0v43U3lSl0g-K-52" value="&amp;lt;&amp;lt;extend&amp;gt;&amp;gt;" style="html=1;verticalAlign=bottom;labelBackgroundColor=none;endArrow=open;endFill=0;dashed=1;rounded=0;" parent="1" source="dL5LyZE0v43U3lSl0g-K-34" target="dL5LyZE0v43U3lSl0g-K-51" edge="1">
          <mxGeometry width="160" relative="1" as="geometry">
            <mxPoint x="550" y="310" as="sourcePoint" />
            <mxPoint x="650" y="310" as="targetPoint" />
            <mxPoint as="offset" />
          </mxGeometry>
        </mxCell>
        <mxCell id="dL5LyZE0v43U3lSl0g-K-53" value="" style="endArrow=none;html=1;rounded=0;" parent="1" source="dL5LyZE0v43U3lSl0g-K-2" target="dL5LyZE0v43U3lSl0g-K-11" edge="1">
          <mxGeometry width="50" height="50" relative="1" as="geometry">
            <mxPoint x="200" y="238" as="sourcePoint" />
            <mxPoint x="460" y="550" as="targetPoint" />
          </mxGeometry>
        </mxCell>
        <mxCell id="dL5LyZE0v43U3lSl0g-K-54" value="" style="endArrow=none;html=1;rounded=0;" parent="1" source="dL5LyZE0v43U3lSl0g-K-2" target="dL5LyZE0v43U3lSl0g-K-45" edge="1">
          <mxGeometry width="50" height="50" relative="1" as="geometry">
            <mxPoint x="200" y="238" as="sourcePoint" />
            <mxPoint x="453" y="543" as="targetPoint" />
          </mxGeometry>
        </mxCell>
        <mxCell id="dL5LyZE0v43U3lSl0g-K-55" value="" style="endArrow=none;html=1;rounded=0;" parent="1" source="dL5LyZE0v43U3lSl0g-K-2" target="dL5LyZE0v43U3lSl0g-K-46" edge="1">
          <mxGeometry width="50" height="50" relative="1" as="geometry">
            <mxPoint x="200" y="244" as="sourcePoint" />
            <mxPoint x="459" y="662" as="targetPoint" />
          </mxGeometry>
        </mxCell>
        <mxCell id="dL5LyZE0v43U3lSl0g-K-56" value="UC2: Digitaal Product Consumeren" style="ellipse;whiteSpace=wrap;html=1;" parent="1" vertex="1">
          <mxGeometry x="640" y="-430" width="140" height="70" as="geometry" />
        </mxCell>
        <mxCell id="dL5LyZE0v43U3lSl0g-K-57" value="&amp;lt;&amp;lt;extend&amp;gt;&amp;gt;" style="html=1;verticalAlign=bottom;labelBackgroundColor=none;endArrow=open;endFill=0;dashed=1;rounded=0;" parent="1" source="dL5LyZE0v43U3lSl0g-K-33" target="dL5LyZE0v43U3lSl0g-K-56" edge="1">
          <mxGeometry width="160" relative="1" as="geometry">
            <mxPoint x="511" y="-56" as="sourcePoint" />
            <mxPoint x="689" y="-234" as="targetPoint" />
          </mxGeometry>
        </mxCell>
        <mxCell id="dL5LyZE0v43U3lSl0g-K-58" value="UC15: (Extra) Abonnement aanschaffen / verwijderen" style="ellipse;whiteSpace=wrap;html=1;" parent="1" vertex="1">
          <mxGeometry x="400" y="410" width="160" height="90" as="geometry" />
        </mxCell>
        <mxCell id="dL5LyZE0v43U3lSl0g-K-59" value="" style="endArrow=none;html=1;rounded=0;" parent="1" source="dL5LyZE0v43U3lSl0g-K-2" target="dL5LyZE0v43U3lSl0g-K-58" edge="1">
          <mxGeometry width="50" height="50" relative="1" as="geometry">
            <mxPoint x="200" y="225" as="sourcePoint" />
            <mxPoint x="423" y="305" as="targetPoint" />
          </mxGeometry>
        </mxCell>
        <mxCell id="OdBmhMoSasrQ1T2dxbwQ-7" value="Bezoeker" style="shape=umlActor;verticalLabelPosition=bottom;verticalAlign=top;html=1;outlineConnect=0;" vertex="1" parent="1">
          <mxGeometry x="170" y="-130" width="30" height="60" as="geometry" />
        </mxCell>
        <mxCell id="OdBmhMoSasrQ1T2dxbwQ-11" value="" style="endArrow=none;html=1;rounded=0;" edge="1" parent="1">
          <mxGeometry width="50" height="50" relative="1" as="geometry">
            <mxPoint x="210" y="-80" as="sourcePoint" />
            <mxPoint x="210" y="-80" as="targetPoint" />
            <Array as="points">
              <mxPoint x="400" y="-40" />
            </Array>
          </mxGeometry>
        </mxCell>
        <mxCell id="OdBmhMoSasrQ1T2dxbwQ-15" value="" style="rounded=0;whiteSpace=wrap;html=1;" vertex="1" parent="1">
          <mxGeometry x="260" y="-470" width="170" height="60" as="geometry" />
        </mxCell>
        <mxCell id="OdBmhMoSasrQ1T2dxbwQ-16" value="Bibiiotheekbeheersysteem&lt;br&gt;vanuit oogpunt lid" style="text;html=1;align=center;verticalAlign=middle;whiteSpace=wrap;rounded=0;" vertex="1" parent="1">
          <mxGeometry x="310" y="-455" width="60" height="30" as="geometry" />
        </mxCell>
      </root>
    </mxGraphModel>
  </diagram>
</mxfile>
